<?xml version="1.0" encoding="UTF-8"?><svg id="Layer_2" xmlns="http://www.w3.org/2000/svg" viewBox="0 0 462.76 550.1"><defs><style>.cls-1{fill:#fff;}</style></defs><g id="Layer_1-2"><path class="cls-1" d="m0,497.9c4.07-16.57,13.2-29.04,29.75-34.65,17.77-6.03,33.98-2.33,46.96,11.11,13.5,13.99,16.61,30.98,8.94,48.82-7.37,17.15-21.11,26.41-40.01,26.9-20.93.55-37.97-12.03-44.13-32.09-.48-1.57-1-3.12-1.51-4.68,0-5.14,0-10.28,0-15.42Z"/><path class="cls-1" d="m.79,230.58C-.4,105.97,102.51-.47,232.87,0c127.28.46,232.87,104.77,229.82,236.17-2.89,124.44-104.77,226.77-233.57,225.41C97.93,460.2-.56,352.1.79,230.58Zm84.56-.55c-1.02,81.17,55.6,149.09,146.66,149.07,87.89-.02,150.56-63.84,150.34-149.23-.21-83.4-60.63-147.42-150-147.77-91.71-.35-147.8,67.13-147,147.93Z"/></g></svg>